# xmcd
#
# Track frame offsets: 
#        150
#        19806
#        35994
#        52910
#        67960
#        83276
#        100733
#        116968
#        132292
#        150149
#        164029
#        178533
#        198207
#        216180
#        230869
#        245840
#        263822
#        281152
#        294631
#        312612
#
# Disc length: 4366 seconds
#
# Revision: 1
# Processed by: cddbd v1.5.2PL0 Copyright (c) Steve Scherf et al.
# Submitted via: ExactAudioCopyFreeDBPlugin 1.0
#
DISCID=29110c14
DTITLE=Various Artist - Now That's What I Call Music 37
DYEAR=2011
DGENRE=Pop
TTITLE0=Eminem (feat. Rihanna) - Love The Way You Lie
TTITLE1=Bruno Mars - Just The Way You Are
TTITLE2=Katy Perry - Firework
TTITLE3=P!nk - Raise Your Glass
TTITLE4=Ke$ha - We R Who We R
TTITLE5=Rihanna - Only Girl (In The World)
TTITLE6=Far East Movement (feat. The Cataracs and Dev) - Like A G6
TTITLE7=Pitbull (feat. T-Pain) - Hey Baby (Drop It To The Floor)
TTITLE8=Chris Brown - Yeah 3X
TTITLE9=Edward Maya and Vika Jigulina - Stereo Love
TTITLE10=Willow - Whip My Hair
TTITLE11=Wacka Flocka Flame (feat. Roscoe Dash and Wale) - No Hands
TTITLE12=Trey Songz (feat. Nicki Minaj) - Bottoms Up
TTITLE13=Mike Posner - Please Don't Go
TTITLE14=The Ready Set - Love Like Woe
TTITLE15=Taylor Swift - Mine
TTITLE16=Greyson Chance - Waiting Outside The Lines
TTITLE17=Andrew Allen - Loving You Tonight
TTITLE18=Mindless Behavior - My Girl
TTITLE19=Jacob Latimore - This Or That
EXTD=
EXTT0=
EXTT1=
EXTT2=
EXTT3=
EXTT4=
EXTT5=
EXTT6=
EXTT7=
EXTT8=
EXTT9=
EXTT10=
EXTT11=
EXTT12=
EXTT13=
EXTT14=
EXTT15=
EXTT16=
EXTT17=
EXTT18=
EXTT19=
PLAYORDER=
